HIERARCHY
ROOT Hips
{
	OFFSET 0.000000 100.481300 0.000000
	CHANNELS 6 Xposition Yposition Zposition Xrotation Yrotation Zrotation 
	JOINT Spine
	{
		OFFSET -0.279200 12.230698 -2.892100
		CHANNELS 3 Xrotation Yrotation Zrotation
		JOINT Spine1
		{
			OFFSET -0.232667 10.192268 -1.242267
			CHANNELS 3 Xrotation Yrotation Zrotation
			JOINT Spine1_split
			{
				OFFSET -0.232667 10.192268 -1.242267
				CHANNELS 3 Xrotation Yrotation Zrotation
				JOINT Spine2
				{
					OFFSET -0.232667 10.192268 -1.242267
					CHANNELS 3 Xrotation Yrotation Zrotation
					JOINT Neck
					{
						OFFSET -0.418800 17.814194 8.416900
						CHANNELS 3 Xrotation Yrotation Zrotation
						JOINT Head
						{
							OFFSET 0.000000 7.031097 3.806800
							CHANNELS 3 Xrotation Yrotation Zrotation
							JOINT HeadTop_End
							{
								OFFSET 0.000000 24.646606 12.978600
								CHANNELS 3 Xrotation Yrotation Zrotation
								End Site
								{
									OFFSET 0.000000 0.000000 0.000000
								}
							}
						}
					}
					JOINT LeftShoulder
					{
						OFFSET 8.476499 7.247704 -3.868750
						CHANNELS 3 Xrotation Yrotation Zrotation
						JOINT LeftShoulder_split
						{
							OFFSET 8.476499 7.247704 -3.868750
							CHANNELS 3 Xrotation Yrotation Zrotation
							JOINT LeftArm
							{
								OFFSET 9.308998 -2.777710 0.208600
								CHANNELS 3 Xrotation Yrotation Zrotation
								JOINT LeftForeArm
								{
									OFFSET 29.972298 0.000000 0.000000
									CHANNELS 3 Xrotation Yrotation Zrotation
									JOINT LeftHand
									{
										OFFSET 26.026505 0.000000 0.000000
										CHANNELS 3 Xrotation Yrotation Zrotation
										JOINT LeftHandThumb1
										{
											OFFSET 12.240501 -7.147949 9.207150
											CHANNELS 3 Xrotation Yrotation Zrotation
											JOINT LeftHandThumb2
											{
												OFFSET 4.138618 -2.389435 2.389433
												CHANNELS 3 Xrotation Yrotation Zrotation
												JOINT LeftHandThumb3
												{
													OFFSET 2.726913 -1.574387 1.574386
													CHANNELS 3 Xrotation Yrotation Zrotation
													JOINT LeftHandThumb4
													{
														OFFSET 3.941010 -2.275345 2.275342
														CHANNELS 3 Xrotation Yrotation Zrotation
														End Site
														{
															OFFSET 0.000000 0.000000 0.000000
														}
													}
												}
											}
										}
										JOINT LeftHandIndex1
										{
											OFFSET 24.424698 -1.985611 5.953459
											CHANNELS 3 Xrotation Yrotation Zrotation
											JOINT LeftHandIndex2
											{
												OFFSET 6.426697 0.000000 0.000000
												CHANNELS 3 Xrotation Yrotation Zrotation
												JOINT LeftHandIndex3
												{
													OFFSET 5.337898 0.000000 0.000000
													CHANNELS 3 Xrotation Yrotation Zrotation
													JOINT LeftHandIndex4
													{
														OFFSET 4.409401 0.000000 0.000000
														CHANNELS 3 Xrotation Yrotation Zrotation
														End Site
														{
															OFFSET 0.000000 0.000000 0.000000
														}
													}
												}
											}
										}
										JOINT LeftHandMiddle1
										{
											OFFSET 23.810104 0.000000 0.000000
											CHANNELS 3 Xrotation Yrotation Zrotation
											JOINT LeftHandMiddle2
											{
												OFFSET 7.176498 0.000000 0.000000
												CHANNELS 3 Xrotation Yrotation Zrotation
												JOINT LeftHandMiddle3
												{
													OFFSET 6.774902 0.000000 0.000000
													CHANNELS 3 Xrotation Yrotation Zrotation
													JOINT LeftHandMiddle4
													{
														OFFSET 5.403328 0.000000 0.000000
														CHANNELS 3 Xrotation Yrotation Zrotation
														End Site
														{
															OFFSET 0.000000 0.000000 0.000000
														}
													}
												}
											}
										}
										JOINT LeftHandRing1
										{
											OFFSET 22.908401 -0.839279 -6.020567
											CHANNELS 3 Xrotation Yrotation Zrotation
											JOINT LeftHandRing2
											{
												OFFSET 6.337502 0.000000 0.000000
												CHANNELS 3 Xrotation Yrotation Zrotation
												JOINT LeftHandRing3
												{
													OFFSET 5.779297 0.000000 0.000000
													CHANNELS 3 Xrotation Yrotation Zrotation
													JOINT LeftHandRing4
													{
														OFFSET 4.965698 0.000000 0.000000
														CHANNELS 3 Xrotation Yrotation Zrotation
														End Site
														{
															OFFSET 0.000000 0.000000 0.000000
														}
													}
												}
											}
										}
										JOINT LeftHandPinky1
										{
											OFFSET 20.037003 -1.530319 -10.950146
											CHANNELS 3 Xrotation Yrotation Zrotation
											JOINT LeftHandPinky2
											{
												OFFSET 5.254700 0.000000 0.000000
												CHANNELS 3 Xrotation Yrotation Zrotation
												JOINT LeftHandPinky3
												{
													OFFSET 4.810204 0.000000 0.000000
													CHANNELS 3 Xrotation Yrotation Zrotation
													JOINT LeftHandPinky4
													{
														OFFSET 3.647202 0.000000 0.000000
														CHANNELS 3 Xrotation Yrotation Zrotation
														End Site
														{
															OFFSET 0.000000 0.000000 0.000000
														}
													}
												}
											}
										}
									}
								}
							}
						}
					}
					JOINT RightShoulder
					{
						OFFSET -7.570500 7.247704 -3.868750
						CHANNELS 3 Xrotation Yrotation Zrotation
						JOINT RightShoulder_split
						{
							OFFSET -7.570500 7.247704 -3.868750
							CHANNELS 3 Xrotation Yrotation Zrotation
							JOINT RightArm
							{
								OFFSET -9.308998 -2.777710 0.208500
								CHANNELS 3 Xrotation Yrotation Zrotation
								JOINT RightForeArm
								{
									OFFSET -29.972300 0.000000 0.000000
									CHANNELS 3 Xrotation Yrotation Zrotation
									JOINT RightHand
									{
										OFFSET -26.026505 0.000000 0.000000
										CHANNELS 3 Xrotation Yrotation Zrotation
										JOINT RightHandThumb1
										{
											OFFSET -12.240601 -7.148026 9.207092
											CHANNELS 3 Xrotation Yrotation Zrotation
											JOINT RightHandThumb2
											{
												OFFSET -4.138618 -2.389435 2.389433
												CHANNELS 3 Xrotation Yrotation Zrotation
												JOINT RightHandThumb3
												{
													OFFSET -2.726974 -1.574417 1.574421
													CHANNELS 3 Xrotation Yrotation Zrotation
													JOINT RightHandThumb4
													{
														OFFSET -3.941010 -2.275345 2.275343
														CHANNELS 3 Xrotation Yrotation Zrotation
														End Site
														{
															OFFSET 0.000000 0.000000 0.000000
														}
													}
												}
											}
										}
										JOINT RightHandIndex1
										{
											OFFSET -24.424698 -1.985657 5.953444
											CHANNELS 3 Xrotation Yrotation Zrotation
											JOINT RightHandIndex2
											{
												OFFSET -6.426697 0.000000 0.000000
												CHANNELS 3 Xrotation Yrotation Zrotation
												JOINT RightHandIndex3
												{
													OFFSET -5.337898 0.000000 0.000000
													CHANNELS 3 Xrotation Yrotation Zrotation
													JOINT RightHandIndex4
													{
														OFFSET -4.409401 0.000000 0.000000
														CHANNELS 3 Xrotation Yrotation Zrotation
														End Site
														{
															OFFSET 0.000000 0.000000 0.000000
														}
													}
												}
											}
										}
										JOINT RightHandMiddle1
										{
											OFFSET -23.810097 0.000000 0.000000
											CHANNELS 3 Xrotation Yrotation Zrotation
											JOINT RightHandMiddle2
											{
												OFFSET -7.176498 0.000000 0.000000
												CHANNELS 3 Xrotation Yrotation Zrotation
												JOINT RightHandMiddle3
												{
													OFFSET -6.774902 0.000000 0.000000
													CHANNELS 3 Xrotation Yrotation Zrotation
													JOINT RightHandMiddle4
													{
														OFFSET -5.403328 0.000000 0.000000
														CHANNELS 3 Xrotation Yrotation Zrotation
														End Site
														{
															OFFSET 0.000000 0.000000 0.000000
														}
													}
												}
											}
										}
										JOINT RightHandRing1
										{
											OFFSET -22.908302 -0.839325 -6.020576
											CHANNELS 3 Xrotation Yrotation Zrotation
											JOINT RightHandRing2
											{
												OFFSET -6.337502 0.000000 0.000000
												CHANNELS 3 Xrotation Yrotation Zrotation
												JOINT RightHandRing3
												{
													OFFSET -5.779297 0.000000 0.000000
													CHANNELS 3 Xrotation Yrotation Zrotation
													JOINT RightHandRing4
													{
														OFFSET -4.965698 0.000000 0.000000
														CHANNELS 3 Xrotation Yrotation Zrotation
														End Site
														{
															OFFSET 0.000000 0.000000 0.000000
														}
													}
												}
											}
										}
										JOINT RightHandPinky1
										{
											OFFSET -20.037003 -1.530334 -10.950259
											CHANNELS 3 Xrotation Yrotation Zrotation
											JOINT RightHandPinky2
											{
												OFFSET -5.254700 0.000000 0.000000
												CHANNELS 3 Xrotation Yrotation Zrotation
												JOINT RightHandPinky3
												{
													OFFSET -4.810204 0.000000 0.000000
													CHANNELS 3 Xrotation Yrotation Zrotation
													JOINT RightHandPinky4
													{
														OFFSET -3.647202 0.000000 0.000000
														CHANNELS 3 Xrotation Yrotation Zrotation
														End Site
														{
															OFFSET 0.000000 0.000000 0.000000
														}
													}
												}
											}
										}
									}
								}
							}
						}
					}
				}
			}
		}
	}
	JOINT LeftUpLeg
	{
		OFFSET 15.427100 -6.655098 0.678600
		CHANNELS 3 Xrotation Yrotation Zrotation
		JOINT LeftLeg
		{
			OFFSET 4.081073 -39.591068 13.024000
			CHANNELS 3 Xrotation Yrotation Zrotation
			JOINT LeftFoot
			{
				OFFSET -4.081074 -37.707932 -15.979700
				CHANNELS 3 Xrotation Yrotation Zrotation
				JOINT LeftToeBase
				{
					OFFSET 5.346399 -15.068900 20.645000
					CHANNELS 3 Xrotation Yrotation Zrotation
					JOINT LeftToe_End
					{
						OFFSET 2.754700 0.931300 11.300900
						CHANNELS 3 Xrotation Yrotation Zrotation
						End Site
						{
							OFFSET 0.000000 0.000000 0.000000
						}
					}
				}
			}
		}
	}
	JOINT RightUpLeg
	{
		OFFSET -15.569500 -6.655098 0.678600
		CHANNELS 3 Xrotation Yrotation Zrotation
		JOINT RightLeg
		{
			OFFSET -4.081825 -39.591045 13.023800
			CHANNELS 3 Xrotation Yrotation Zrotation
			JOINT RightFoot
			{
				OFFSET 4.081824 -37.707954 -15.979600
				CHANNELS 3 Xrotation Yrotation Zrotation
				JOINT RightToeBase
				{
					OFFSET -5.346400 -15.068900 20.645000
					CHANNELS 3 Xrotation Yrotation Zrotation
					JOINT RightToe_End
					{
						OFFSET -2.754700 0.931300 11.300900
						CHANNELS 3 Xrotation Yrotation Zrotation
						End Site
						{
							OFFSET 0.000000 0.000000 0.000000
						}
					}
				}
			}
		}
	}
}
MOTION
Frames: 4
Frame Time: 0.016667
1.027061 96.175163 -2.170854 2.912721 -28.996721 0.976887 7.837233 -0.327524 -2.471545 1.099251 -0.880574 2.383463 0.000000 0.000000 0.000000 1.108682 -0.590438 2.446367 -3.841838 18.019055 -6.496487 -6.332742 13.021564 0.301528 -0.000000 -0.000000 -0.000000 -0.057388 -8.759444 -0.061006 0.000000 0.000000 0.000000 -55.250828 0.329468 -41.449355 11.584324 -65.827287 13.005454 -50.191030 12.352926 4.610807 17.551614 -5.699205 -12.932299 10.850450 26.127712 8.644858 20.927008 51.115876 0.218769 0.000000 -0.000001 0.000000 13.980909 1.201546 -55.004360 0.370812 1.161711 -65.441873 1.983970 2.147975 -57.665136 0.000000 0.000000 0.000000 7.504731 1.174487 -63.778510 1.807800 1.475668 -64.567937 0.130346 -0.912240 -43.272520 0.000000 0.000000 -0.000001 8.574333 2.179149 -75.149006 -0.207663 1.009298 -57.855056 0.443119 1.742167 -53.581270 0.000000 -0.000000 -0.000003 10.030066 13.637038 -84.750244 0.877098 0.062316 -64.595503 1.141289 1.253113 -55.016337 0.000000 -0.000000 0.000001 4.849299 7.760145 5.560457 0.000000 0.000000 0.000000 -0.933457 -2.176907 61.845649 11.299284 18.943577 -3.987601 -0.459218 6.620096 5.830218 15.788390 -2.734486 -17.205783 -2.198338 -31.113557 7.361239 -6.564272 -4.136652 2.406506 0.000000 0.000001 0.000001 2.382182 -3.656537 8.488168 -2.150637 -2.471229 18.673300 -1.903770 -4.812981 14.173541 -0.000001 0.000000 -0.000001 -1.979710 -5.703093 13.662281 0.280394 -5.098940 26.988055 -0.665021 -1.219183 16.125843 -0.000002 0.000001 -0.000004 -3.257611 -8.560611 11.770094 4.036126 -4.060209 33.262960 2.105486 -3.157822 15.593631 0.000000 -0.000000 0.000001 -6.474169 -11.347977 23.260728 10.715051 -2.557677 34.822637 6.412740 -3.078173 15.310817 -0.000000 -0.000000 -0.000001 -13.775961 18.268825 13.061706 14.399681 11.473684 -1.668639 -2.224696 -2.507681 -7.546913 -0.142081 0.007485 -0.310363 -0.000000 -0.000000 0.000000 -8.425480 -1.526186 -8.449297 10.998008 9.446606 0.847326 -5.765016 -0.831963 6.905979 -1.288151 -0.016835 0.151286 -0.000000 -0.000001 -0.000000 
0.808300 95.491623 -2.004014 3.089651 -27.959012 1.127442 7.586258 -0.089368 -2.774277 1.179883 -0.587871 2.428845 0.000000 0.000000 0.000000 1.179491 -0.331355 2.447599 -4.361380 17.503034 -6.286971 -6.658290 12.494608 0.882709 0.000000 -0.000000 -0.000000 -0.156520 -7.613176 -0.517555 0.000000 0.000000 0.000000 -54.992875 2.359947 -39.858867 14.183643 -68.506490 15.203632 -50.021102 11.836321 3.695149 17.551612 -5.699205 -12.932291 10.850445 26.127714 8.644854 20.927015 51.115869 0.218766 0.000000 -0.000001 0.000002 13.980908 1.201546 -55.004367 0.370816 1.161710 -65.441880 1.983970 2.147975 -57.665136 -0.000000 -0.000003 0.000002 7.504732 1.174486 -63.778510 1.807801 1.475669 -64.567937 0.130346 -0.912240 -43.272510 0.000000 -0.000000 -0.000000 8.574333 2.179148 -75.148999 -0.207662 1.009297 -57.855056 0.443121 1.742169 -53.581273 0.000000 -0.000001 0.000000 10.030066 13.637037 -84.750244 0.877098 0.062316 -64.595503 1.141289 1.253113 -55.016337 0.000000 0.000001 -0.000003 4.812136 8.119668 5.688572 0.000000 0.000000 0.000000 -0.408759 -2.451840 61.988475 12.244011 18.822500 -4.559213 -0.536305 7.009252 5.751510 15.835312 -2.735865 -17.119541 -2.264923 -31.017661 7.352482 -6.532643 -4.205990 2.392054 -0.000000 -0.000003 0.000000 2.381966 -3.658123 8.566173 -2.150600 -2.472776 18.751253 -1.903822 -4.813459 14.251540 -0.000001 0.000000 -0.000002 -1.979307 -5.704401 13.740276 0.282756 -5.099367 27.066155 -0.665025 -1.220606 16.203791 -0.000001 -0.000001 0.000004 -3.258063 -8.562268 11.847971 4.035930 -4.062109 33.341131 2.105868 -3.159233 15.671668 0.000001 -0.000000 0.000000 -6.485093 -11.390087 23.332707 10.716264 -2.558939 34.900911 6.414170 -3.079557 15.389053 0.000000 -0.000000 0.000001 -15.041866 17.621483 13.201026 16.243445 10.672058 -1.746916 -3.038929 -2.325196 -7.593685 -0.142073 0.007486 -0.310366 -0.000000 -0.000000 0.000000 -9.008991 -1.458994 -8.640615 13.080453 9.016468 0.811751 -7.342173 -1.370727 6.802365 -1.288153 -0.016830 0.151282 0.000000 -0.000000 -0.000000 
0.607702 94.855469 -1.813245 3.262533 -26.758555 1.216217 7.262696 0.211309 -2.959608 1.305103 -0.239093 2.460832 0.000000 0.000000 0.000000 1.292175 -0.018797 2.426598 -4.964535 16.791071 -6.023531 -6.880098 11.820293 1.376510 -0.000000 -0.000000 0.000000 -0.257676 -6.543716 -1.038124 0.000000 0.000000 0.000000 -54.949616 4.638169 -38.362659 19.162502 -71.200829 19.813679 -49.825393 10.829561 2.949339 17.551619 -5.699207 -12.932292 10.850448 26.127717 8.644857 20.927018 51.115872 0.218766 0.000002 -0.000005 0.000003 13.980910 1.201547 -55.004367 0.370816 1.161711 -65.441873 1.983971 2.147977 -57.665142 0.000001 -0.000001 -0.000000 7.504731 1.174483 -63.778517 1.807802 1.475668 -64.567937 0.130347 -0.912241 -43.272517 -0.000000 0.000001 0.000000 8.574333 2.179152 -75.149006 -0.207664 1.009298 -57.855056 0.443121 1.742168 -53.581267 -0.000000 -0.000001 -0.000001 10.030068 13.637039 -84.750251 0.877098 0.062316 -64.595503 1.141289 1.253112 -55.016337 0.000001 0.000000 -0.000003 4.776426 8.473875 5.863062 0.000000 0.000000 0.000000 0.334841 -2.740971 62.151204 13.457524 18.694463 -5.471693 -0.738290 7.226694 5.672248 15.960344 -2.740585 -16.876663 -2.449895 -30.750765 7.328925 -6.440407 -4.396674 2.350397 0.000001 -0.000003 -0.000000 2.381017 -3.658316 8.783371 -2.150652 -2.472923 18.968451 -1.903962 -4.814750 14.468767 -0.000000 0.000001 -0.000002 -1.978072 -5.708029 13.957457 0.282842 -5.100868 27.283360 -0.664601 -1.220688 16.421096 0.000000 0.000000 0.000001 -3.259168 -8.562337 12.064999 4.035362 -4.062294 33.558324 2.106689 -3.159366 15.888936 0.000001 0.000001 -0.000004 -6.514890 -11.507470 23.533041 10.719504 -2.558908 35.118217 6.414173 -3.079649 15.606216 0.000000 0.000000 -0.000002 -16.294137 16.992677 13.293685 17.915333 9.726936 -1.824314 -3.750759 -2.164915 -7.516034 -0.142082 0.007486 -0.310366 -0.000000 0.000000 -0.000000 -9.402359 -1.464394 -8.717691 14.892015 8.913845 0.805689 -8.822875 -2.358770 6.590622 -1.288155 -0.016851 0.151290 0.000000 -0.000000 -0.000000 
0.417065 94.277641 -1.605311 3.426170 -25.398257 1.261093 6.886382 0.557790 -3.053811 1.460489 0.152810 2.478274 0.000000 0.000000 0.000000 1.433638 0.334555 2.384510 -5.614539 15.907840 -5.715404 -7.022093 11.021185 1.798167 -0.000000 -0.000000 0.000000 -0.348969 -5.538387 -1.589102 0.000000 0.000000 0.000000 -55.141572 7.041881 -36.915465 26.186701 -73.767033 26.509991 -49.617875 9.602811 2.265828 17.551614 -5.699207 -12.932295 10.850450 26.127712 8.644855 20.927011 51.115869 0.218766 0.000001 -0.000002 -0.000003 13.980908 1.201545 -55.004364 0.370814 1.161712 -65.441873 1.983970 2.147978 -57.665142 -0.000000 -0.000001 -0.000000 7.504731 1.174487 -63.778510 1.807802 1.475669 -64.567937 0.130343 -0.912241 -43.272517 -0.000000 -0.000002 0.000001 8.574333 2.179148 -75.148999 -0.207666 1.009298 -57.855049 0.443120 1.742170 -53.581277 0.000000 -0.000001 0.000000 10.030067 13.637038 -84.750251 0.877098 0.062316 -64.595503 1.141289 1.253113 -55.016340 0.000001 0.000000 -0.000000 4.736010 8.868323 6.075511 0.000000 0.000000 0.000000 1.246712 -3.107688 62.321241 14.852974 18.537191 -6.632881 -1.106521 7.329463 5.646154 16.151260 -2.746659 -16.506580 -2.730667 -30.343829 7.294858 -6.299994 -4.687450 2.287417 0.000000 -0.000004 0.000001 2.379601 -3.658621 9.114443 -2.150758 -2.473106 19.299596 -1.904141 -4.816674 14.799727 0.000000 0.000001 -0.000000 -1.976187 -5.708183 14.288698 0.283037 -5.103084 27.614467 -0.663960 -1.220822 16.752192 0.000000 -0.000001 0.000003 -3.260867 -8.562463 12.395870 4.034544 -4.062547 33.889377 2.108009 -3.159525 16.220125 0.000001 -0.000000 -0.000001 -6.558732 -11.686798 23.838383 10.719593 -2.559031 35.449300 6.414220 -3.079802 15.937359 -0.000000 0.000001 0.000001 -17.423543 16.394705 13.548375 19.515572 9.990889 -1.844519 -4.480438 -3.421337 -7.755752 -0.142086 0.007491 -0.310367 0.000000 0.000000 -0.000000 -9.585718 -1.528777 -8.806787 16.440387 8.533541 0.792731 -10.232398 -3.202530 6.491067 -1.253179 -0.016757 0.151293 0.000000 -0.000000 -0.000000 
